<svg xmlns="http://www.w3.org/2000/svg" width="79" height="79" viewBox="0 0 79 79">
  <path id="joim_mem_ico" d="M60.31,39.619a20.69,20.69,0,1,1-20.69,20.69A20.69,20.69,0,0,1,60.31,39.619Zm0,7.521-.338.03a1.882,1.882,0,0,0-1.512,1.513l-.03.338,0,9.4-9.412,0-.338.03a1.882,1.882,0,0,0-1.513,1.512l-.03.338.03.338a1.882,1.882,0,0,0,1.513,1.512l.338.03,9.416,0,0,9.421.03.338a1.882,1.882,0,0,0,1.512,1.512l.338.03.338-.03a1.883,1.883,0,0,0,1.513-1.512l.03-.338,0-9.421,9.419,0,.338-.03a1.882,1.882,0,0,0,1.513-1.512l.03-.338-.03-.338a1.882,1.882,0,0,0-1.513-1.512l-.338-.03-9.424,0,0-9.4-.03-.338a1.882,1.882,0,0,0-1.512-1.513Zm-20.608,0a24.5,24.5,0,0,0-1.979,22.552c-9.607-.517-15.032-4.6-15.032-12.206V53.726a6.583,6.583,0,0,1,6.583-6.583ZM25.045,28.334A15.074,15.074,0,0,0,29.06,42.816l.61.568-.4,0a10.334,10.334,0,0,0-9.964,7.555l-.13,0C8.237,50.939,2,46.839,2,38.679V34.917a6.584,6.584,0,0,1,6.043-6.562l.54-.022ZM39.619,20.81A11.286,11.286,0,1,1,28.333,32.1,11.286,11.286,0,0,1,39.619,20.81Zm31.036,7.524a6.583,6.583,0,0,1,6.583,6.583l0,3.619a12.816,12.816,0,0,1-.329,3.816,24.5,24.5,0,0,0-22.961-5.658,14.833,14.833,0,0,0,.722-4.6,15.066,15.066,0,0,0-.474-3.762ZM18.929,2A11.286,11.286,0,1,1,7.643,13.286,11.286,11.286,0,0,1,18.929,2ZM60.31,2A11.286,11.286,0,1,1,49.024,13.286,11.286,11.286,0,0,1,60.31,2Z" transform="translate(-2 -2)" fill="#1c3e8b"/>
</svg>
