<svg xmlns="http://www.w3.org/2000/svg" width="51.617" height="36.868" viewBox="0 0 51.617 36.868">
  <g id="ticket_ici_y" transform="translate(0 0)">
    <path id="Path_47" data-name="Path 47" d="M7.751,48.868h29.43a1.843,1.843,0,0,0,1.843-1.843V45.181a1.843,1.843,0,1,1,3.687,0v1.843a1.843,1.843,0,0,0,1.843,1.843h7.309a3.751,3.751,0,0,0,3.751-3.742V40.794a7,7,0,0,0-1.558-4.507,9.106,9.106,0,0,1,0-11.687,7,7,0,0,0,1.558-4.507V15.761A3.751,3.751,0,0,0,51.864,12H44.555a1.843,1.843,0,0,0-1.843,1.843v1.843a1.843,1.843,0,1,1-3.687,0V13.843A1.843,1.843,0,0,0,37.181,12H7.751A3.751,3.751,0,0,0,4,15.761v4.332A7,7,0,0,0,5.558,24.6a9.069,9.069,0,0,1,2.129,5.834,9.069,9.069,0,0,1-2.129,5.844A7,7,0,0,0,4,40.794v4.332a3.751,3.751,0,0,0,3.751,3.742ZM39.024,23.06a1.843,1.843,0,1,1,3.687,0v3.687a1.843,1.843,0,0,1-3.687,0Zm0,11.06a1.843,1.843,0,1,1,3.687,0v3.687a1.843,1.843,0,1,1-3.687,0Zm-23.31-9.576a4.608,4.608,0,0,1,6.719-.175L23.6,25.521l.977-.977a4.774,4.774,0,0,1,6.507-.35,4.608,4.608,0,0,1,.175,6.673L24.8,37.319a1.659,1.659,0,0,1-2.35,0l-6.378-6.258a4.774,4.774,0,0,1-.359-6.516Z" transform="translate(-3.999 -12)" fill="#d0a929"/>
  </g>
</svg>
