<svg id="whatsapp_ico" xmlns="http://www.w3.org/2000/svg" width="40.228" height="40.664" viewBox="0 0 40.228 40.664">
  <g id="Group_22" data-name="Group 22">
    <path id="Path_50" data-name="Path 50" d="M5.714,33.417a20.111,20.111,0,1,1,6.6,6.373L2.5,43.061l3.214-9.644Z" transform="translate(-2.5 -2.397)" fill="#f3f3f3" fill-rule="evenodd"/>
    <path id="Path_51" data-name="Path 51" d="M7.367,29.733a16.113,16.113,0,1,1,4.059,3.983l-6.06,2.02Z" transform="translate(-0.391 -0.288)" fill="#00a82d" fill-rule="evenodd"/>
  </g>
  <path id="Path_52" data-name="Path 52" d="M12.085,21.457A20.449,20.449,0,0,1,7.619,11.125,3.6,3.6,0,0,1,11.492,7.1l.1.011s1.188.318,1.838.493a.8.8,0,0,1,.55.514c.292.868.982,2.907,1.308,3.866a.8.8,0,0,1-.241.868c-.493.415-1.308,1.1-1.817,1.531a.8.8,0,0,0-.212.938A16.459,16.459,0,0,0,15.261,18.9a16.429,16.429,0,0,0,3.144,2.81.8.8,0,0,0,.961-.051c.51-.428,1.325-1.114,1.817-1.529a.8.8,0,0,1,.9-.091l3.587,1.944a.8.8,0,0,1,.415.629c.061.671.176,1.895.176,1.895l-.008.1a3.6,3.6,0,0,1-4.624,3.136,20.436,20.436,0,0,1-9.483-6.218l-.057-.068Z" transform="translate(3.189 2.841)" fill="#f3f3f3" fill-rule="evenodd"/>
</svg>
